<svg xmlns="http://www.w3.org/2000/svg" width="116" height="116" viewBox="0 0 116 116">
<g>
<path d="M 74.76 87.02 C70.89,88.69 67.11,89.37 60.50,89.61 C50.65,89.95 46.18,89.15 39.73,85.87 C32.02,81.94 30.00,78.11 30.00,67.43 L 30.00 62.11 L 23.95 59.40 C17.69,56.59 14.00,53.07 14.00,49.92 C14.00,46.12 18.86,42.86 36.50,34.81 C56.63,25.64 59.49,25.09 67.50,28.89 C70.25,30.19 78.35,33.94 85.50,37.21 C92.65,40.49 99.29,43.87 100.25,44.74 C101.77,46.10 102.00,48.27 102.00,60.95 C102.00,76.05 101.52,78.00 97.84,78.00 C95.09,78.00 94.00,74.78 94.00,66.64 L 94.00 59.15 L 90.01 60.82 L 86.02 62.50 L 86.01 70.22 C86.00,77.35 85.78,78.19 83.01,81.34 C81.36,83.21 77.65,85.77 74.76,87.02 ZM 40.25 58.28 C49.19,62.44 57.28,65.89 58.23,65.93 C59.18,65.97 66.38,63.02 74.23,59.39 C82.08,55.75 89.51,52.39 90.75,51.91 C91.99,51.44 93.00,50.67 93.00,50.20 C93.00,49.35 60.36,34.01 58.50,33.99 C56.87,33.97 24.00,49.22 24.00,49.99 C24.00,50.38 31.31,54.11 40.25,58.28 ZM 47.14 80.51 C56.02,83.28 69.37,82.00 75.25,77.82 C77.54,76.19 78.00,75.13 78.00,71.43 C78.00,68.99 77.61,67.00 77.14,67.00 C76.67,67.00 72.87,68.57 68.71,70.50 C64.54,72.43 59.85,74.00 58.29,74.00 C56.72,74.00 52.16,72.43 48.14,70.50 C38.76,66.00 38.00,66.03 38.00,70.83 C38.00,75.51 40.88,78.55 47.14,80.51 Z" fill="rgb(31,57,136)"/>
<path d="M 0.00 58.00 L 0.00 0.00 L 58.00 0.00 L 116.00 0.00 L 116.00 58.00 L 116.00 116.00 L 58.00 116.00 L 0.00 116.00 L 0.00 58.00 ZM 74.76 87.02 C77.65,85.77 81.36,83.21 83.01,81.34 C85.78,78.19 86.00,77.35 86.01,70.22 L 86.02 62.50 L 90.01 60.82 L 94.00 59.15 L 94.00 66.64 C94.00,74.78 95.09,78.00 97.84,78.00 C101.52,78.00 102.00,76.05 102.00,60.95 C102.00,48.27 101.77,46.10 100.25,44.74 C99.29,43.87 92.65,40.49 85.50,37.21 C78.35,33.94 70.25,30.19 67.50,28.89 C59.49,25.09 56.63,25.64 36.50,34.81 C18.86,42.86 14.00,46.12 14.00,49.92 C14.00,53.07 17.69,56.59 23.95,59.40 L 30.00 62.11 L 30.00 67.43 C30.00,78.11 32.02,81.94 39.73,85.87 C46.18,89.15 50.65,89.95 60.50,89.61 C67.11,89.37 70.89,88.69 74.76,87.02 ZM 47.14 80.51 C40.88,78.55 38.00,75.51 38.00,70.83 C38.00,66.03 38.76,66.00 48.14,70.50 C52.16,72.43 56.72,74.00 58.29,74.00 C59.85,74.00 64.54,72.43 68.71,70.50 C72.87,68.57 76.67,67.00 77.14,67.00 C77.61,67.00 78.00,68.99 78.00,71.43 C78.00,75.13 77.54,76.19 75.25,77.82 C69.37,82.00 56.02,83.28 47.14,80.51 ZM 40.25 58.28 C31.31,54.11 24.00,50.38 24.00,49.99 C24.00,49.22 56.87,33.97 58.50,33.99 C60.36,34.01 93.00,49.35 93.00,50.20 C93.00,50.67 91.99,51.44 90.75,51.91 C89.51,52.39 82.08,55.75 74.23,59.39 C66.38,63.02 59.18,65.97 58.23,65.93 C57.28,65.89 49.19,62.44 40.25,58.28 Z" fill="rgb(242,247,254)"/>
</g>
</svg>